<svg xmlns="http://www.w3.org/2000/svg" viewBox="0 0 515 296">
    <defs>
        <radialGradient id="a" cx="0%" cy="26.2%" r="40.7%" fx="0%" fy="26.2%">
            <stop stop-color="#0E0036" offset="0%" />
            <stop stop-color="#26006E" offset="100%" />
        </radialGradient>
        <linearGradient id="b" x1="50%" x2="50%" y1="100%" y2="0%">
            <stop stop-color="#404040" offset="0%" />
            <stop stop-color="#222" offset="100%" />
        </linearGradient>
        <linearGradient id="c" x1="50%" x2="50%" y1="-5.6%" y2="130.5%">
            <stop stop-color="#9B9DA3" offset="0%" />
            <stop stop-color="#2E2F31" offset="100%" />
        </linearGradient>
        <linearGradient id="d" x1="-.8%" y1="50%" y2="50%">
            <stop stop-color="#7D7E80" offset="0%" />
            <stop stop-color="#F2F3F3" offset="1.9%" />
            <stop stop-color="#888A91" offset="5.4%" />
            <stop stop-color="#D6D6D7" offset="13.2%" />
            <stop stop-color="#E9EAEB" offset="24.6%" />
            <stop stop-color="#F1F2F2" offset="100%" />
        </linearGradient>
        <radialGradient id="e" cx="0%" cy="-10.6%" r="52.1%" fx="0%" fy="-10.6%">
            <stop stop-color="#FCFCFC" offset="0%" />
            <stop stop-color="#D7D8DB" offset="88.5%" />
            <stop stop-color="#A8A8A8" offset="100%" />
        </radialGradient>
    </defs>
    <g fill="none" fill-rule="evenodd">
        <g transform="translate(47)">
            <path fill="#010000" d="M13 0C5.8 0 0 5.8 0 13v264c0 2.8 2.2 5 5 5h410c2.8 0 5-2.2 5-5V13c0-7.2-5.8-13-13-13H13zm1 16v245h393V16H14z" />
            <circle cx="211.5" cy="7.5" r="2.5" fill="url(#a)" stroke="url(#b)" />
        </g>
        <path fill="url(#c)" d="M14.7 15.4C8.3 15.4 0 11.7 0 10h515c0 1.7-8.3 5.4-14.7 5.4H14.7z" transform="translate(0 280)" />
        <path fill="url(#d)" d="M0 0h260v10H0" transform="translate(0 280)" />
        <path fill="url(#d)" d="M255 0h260v10H255" transform="rotate(180 385 145)" />
        <path fill="url(#e)" d="M228.7 6h59c3.8 0 7-2.6 7.8-6H221c1 3.5 4 6 7.7 6z" transform="translate(0 280)" />
    </g>
</svg>
